# Blender v2.73 (sub 0) OBJ File: 'Wooden Fence.blend'
# www.blender.org
mtllib Wooden Fence LP.mtl
o Fence_Wooden_LP_Cube.006
v 1.670939 0.183977 0.025000
v 1.670939 0.183977 -0.025000
v 1.970939 0.183977 -0.025000
v 1.970939 0.183977 0.025000
v 1.670939 1.733415 0.025000
v 1.670939 1.733415 -0.025000
v 1.970939 1.733415 -0.025000
v 1.970939 1.733415 0.025000
v 1.339492 0.183977 0.025000
v 1.339492 0.183977 -0.025000
v 1.639493 0.183977 -0.025000
v 1.639493 0.183977 0.025000
v 1.339492 1.733415 0.025000
v 1.339492 1.733415 -0.025000
v 1.639493 1.733415 -0.025000
v 1.639493 1.733415 0.025000
v 1.008046 0.183977 0.025000
v 1.008046 0.183977 -0.025000
v 1.308046 0.183977 -0.025000
v 1.308046 0.183977 0.025000
v 1.008046 1.733415 0.025000
v 1.008046 1.733415 -0.025000
v 1.308046 1.733415 -0.025000
v 1.308046 1.733415 0.025000
v 0.681778 0.183977 0.025000
v 0.681778 0.183977 -0.025000
v 0.981778 0.183977 -0.025000
v 0.981778 0.183977 0.025000
v 0.681778 1.733415 0.025000
v 0.681778 1.733415 -0.025000
v 0.981778 1.733415 -0.025000
v 0.981778 1.733415 0.025000
v 0.350331 0.183977 0.025000
v 0.350331 0.183977 -0.025000
v 0.650331 0.183977 -0.025000
v 0.650331 0.183977 0.025000
v 0.350331 1.733415 0.025000
v 0.350331 1.733415 -0.025000
v 0.650331 1.733415 -0.025000
v 0.650331 1.733415 0.025000
v 0.018884 0.183977 0.025000
v 0.018884 0.183977 -0.025000
v 0.318884 0.183977 -0.025000
v 0.318884 0.183977 0.025000
v 0.018884 1.733415 0.025000
v 0.018884 1.733415 -0.025000
v 0.318884 1.733415 -0.025000
v 0.318884 1.733415 0.025000
v -1.670939 0.183977 0.025000
v -1.670939 0.183977 -0.025000
v -1.970939 0.183977 -0.025000
v -1.970939 0.183977 0.025000
v -1.670939 1.733415 0.025000
v -1.670939 1.733415 -0.025000
v -1.970939 1.733415 -0.025000
v -1.970939 1.733415 0.025000
v -1.339492 0.183977 0.025000
v -1.339492 0.183977 -0.025000
v -1.639493 0.183977 -0.025000
v -1.639493 0.183977 0.025000
v -1.339492 1.733415 0.025000
v -1.339492 1.733415 -0.025000
v -1.639493 1.733415 -0.025000
v -1.639493 1.733415 0.025000
v -1.008046 0.183977 0.025000
v -1.008046 0.183977 -0.025000
v -1.308046 0.183977 -0.025000
v -1.308046 0.183977 0.025000
v -1.008046 1.733415 0.025000
v -1.008046 1.733415 -0.025000
v -1.308046 1.733415 -0.025000
v -1.308046 1.733415 0.025000
v -0.681778 0.183977 0.025000
v -0.681778 0.183977 -0.025000
v -0.981778 0.183977 -0.025000
v -0.981778 0.183977 0.025000
v -0.681778 1.733415 0.025000
v -0.681778 1.733415 -0.025000
v -0.981778 1.733415 -0.025000
v -0.981778 1.733415 0.025000
v -0.350331 0.183977 0.025000
v -0.350331 0.183977 -0.025000
v -0.650331 0.183977 -0.025000
v -0.650331 0.183977 0.025000
v -0.350331 1.733415 0.025000
v -0.350331 1.733415 -0.025000
v -0.650331 1.733415 -0.025000
v -0.650331 1.733415 0.025000
v -0.018884 0.183977 0.025000
v -0.018884 0.183977 -0.025000
v -0.318884 0.183977 -0.025000
v -0.318884 0.183977 0.025000
v -0.018884 1.733415 0.025000
v -0.018884 1.733415 -0.025000
v -0.318884 1.733415 -0.025000
v -0.318884 1.733415 0.025000
v 2.256106 2.425869 0.228559
v 2.256106 2.446547 0.251067
v -2.256106 2.425869 0.228559
v -2.256106 2.446547 0.251067
v 2.256106 2.425869 -0.228559
v 2.256106 2.675526 0.000000
v 2.256106 2.446547 -0.251067
v 2.256106 2.715107 0.000000
v -2.256106 2.425869 -0.228559
v -2.256106 2.675526 0.000000
v -2.256106 2.446547 -0.251067
v -2.256106 2.715107 0.000000
v -2.038612 1.967476 0.034212
v -2.038612 1.967476 -0.034211
v 0.677273 1.967476 -0.034211
v 0.677273 1.967476 0.034212
v -2.038612 2.035899 0.034212
v -2.038612 2.035899 -0.034211
v 0.677273 2.035899 -0.034211
v 0.677273 2.035899 0.034212
v 2.038612 2.216031 0.034212
v 2.038612 2.216031 -0.034211
v -0.677273 2.216031 -0.034211
v -0.677273 2.216031 0.034212
v 2.038612 2.284455 0.034212
v 2.038612 2.284455 -0.034211
v -0.677273 2.284455 -0.034211
v -0.677273 2.284455 0.034212
v 1.992972 -0.008153 0.131623
v 1.992972 -0.008153 -0.131623
v 2.256217 -0.008153 -0.131623
v 2.256217 -0.008153 0.131623
v 1.992972 2.530076 0.131623
v 1.992972 2.530076 -0.131623
v 2.256217 2.530076 -0.131623
v 2.256217 2.530076 0.131623
v 2.256217 -0.008153 0.000000
v 2.256217 2.672740 0.000000
v 1.992972 -0.008153 0.000000
v 1.992972 2.672740 0.000000
v 0.068611 2.558077 -0.105342
v 0.068611 2.558077 0.105342
v 0.068611 1.779355 -0.105342
v 0.068611 1.779355 0.105342
v 0.068611 2.672740 0.000000
v 0.068611 1.779355 0.000000
v -1.992972 -0.008153 0.131623
v -1.992972 -0.008153 -0.131623
v -2.256217 -0.008153 -0.131623
v -2.256217 -0.008153 0.131623
v -1.992972 2.530076 0.131623
v -1.992972 2.530076 -0.131623
v -2.256217 2.530076 -0.131623
v -2.256217 2.530076 0.131623
v -2.256217 -0.008153 0.000000
v -2.256217 2.672740 0.000000
v -1.992972 -0.008153 0.000000
v -1.992972 2.672740 0.000000
v -0.068611 2.558077 -0.105342
v -0.068611 2.558077 0.105342
v -0.068611 1.779355 -0.105342
v -0.068611 1.779355 0.105342
v -0.068611 2.672740 0.000000
v -0.068611 1.779355 0.000000
v -2.000000 1.818828 -0.112248
v -2.000000 1.818828 0.112248
v 2.000000 1.818828 0.112248
v 2.000000 1.818828 -0.112248
v -2.000000 1.733544 -0.112248
v -2.000000 1.733544 0.112248
v 2.000000 1.733544 0.112248
v 2.000000 1.733544 -0.112248
v -2.000000 1.733544 -0.069416
v -2.000000 1.733544 -0.025000
v 2.000000 1.733544 -0.025000
v 2.000000 1.733544 -0.069416
v -2.000000 1.686289 -0.069416
v -2.000000 1.686289 -0.025000
v 2.000000 1.686289 -0.025000
v 2.000000 1.686289 -0.069416
v -2.000000 1.733544 0.025000
v -2.000000 1.733544 0.069416
v 2.000000 1.733544 0.069416
v 2.000000 1.733544 0.025000
v -2.000000 1.686289 0.025000
v -2.000000 1.686289 0.069416
v 2.000000 1.686289 0.069416
v 2.000000 1.686289 0.025000
v -2.000000 0.098292 0.112248
v -2.000000 0.098292 -0.112248
v 2.000000 0.098292 -0.112248
v 2.000000 0.098292 0.112248
v -2.000000 0.183576 0.112248
v -2.000000 0.183576 -0.112248
v 2.000000 0.183576 -0.112248
v 2.000000 0.183576 0.112248
v -2.000000 0.183576 0.069416
v -2.000000 0.183576 0.025000
v 2.000000 0.183576 0.025000
v 2.000000 0.183576 0.069416
v -2.000000 0.230831 0.069416
v -2.000000 0.230831 0.025000
v 2.000000 0.230831 0.025000
v 2.000000 0.230831 0.069416
v -2.000000 0.183576 -0.025000
v -2.000000 0.183576 -0.069416
v 2.000000 0.183576 -0.069416
v 2.000000 0.183576 -0.025000
v -2.000000 0.230831 -0.025000
v -2.000000 0.230831 -0.069416
v 2.000000 0.230831 -0.069416
v 2.000000 0.230831 -0.025000
vt 0.017981 0.451225
vt 0.017981 0.444123
vt 0.238064 0.444122
vt 0.238064 0.451225
vt 0.017981 0.543551
vt 0.017981 0.500939
vt 0.238064 0.500939
vt 0.238064 0.543551
vt 0.017981 0.493837
vt 0.238064 0.493837
vt 0.932134 0.103885
vt 0.932134 0.110987
vt 0.889521 0.110987
vt 0.889521 0.103885
vt 0.888998 0.102703
vt 0.888998 0.095601
vt 0.931610 0.095601
vt 0.931610 0.102703
vt 0.465797 0.866377
vt 0.465797 0.873479
vt 0.245713 0.873480
vt 0.245713 0.866377
vt 0.465797 0.774051
vt 0.465797 0.816663
vt 0.245713 0.816663
vt 0.245713 0.774051
vt 0.465797 0.823765
vt 0.245713 0.823765
vt 0.977720 0.036732
vt 0.977720 0.043834
vt 0.935107 0.043834
vt 0.935107 0.036732
vt 0.933797 0.103092
vt 0.933797 0.095990
vt 0.976409 0.095990
vt 0.976409 0.103092
vt 0.236487 0.754234
vt 0.236487 0.761336
vt 0.016403 0.761337
vt 0.016403 0.754234
vt 0.236487 0.661908
vt 0.236487 0.704520
vt 0.016403 0.704520
vt 0.016404 0.661908
vt 0.236487 0.711622
vt 0.016403 0.711622
vt 0.932326 0.044796
vt 0.932326 0.051898
vt 0.889713 0.051898
vt 0.889713 0.044796
vt 0.889713 0.068025
vt 0.889713 0.060923
vt 0.932326 0.060923
vt 0.932326 0.068025
vt 0.238064 0.335668
vt 0.238064 0.342770
vt 0.017981 0.342770
vt 0.017981 0.335668
vt 0.238064 0.243341
vt 0.238064 0.285954
vt 0.017981 0.285953
vt 0.017981 0.243341
vt 0.238064 0.293056
vt 0.017981 0.293056
vt 0.977719 0.020605
vt 0.977719 0.027707
vt 0.935107 0.027707
vt 0.935107 0.020605
vt 0.935107 0.068025
vt 0.935107 0.060923
vt 0.977719 0.060923
vt 0.977719 0.068025
vt 0.019730 0.143556
vt 0.019730 0.136454
vt 0.239814 0.136454
vt 0.239814 0.143556
vt 0.019730 0.235883
vt 0.019730 0.193271
vt 0.239813 0.193271
vt 0.239814 0.235883
vt 0.019730 0.186169
vt 0.239814 0.186169
vt 0.976409 0.079863
vt 0.976409 0.086965
vt 0.933796 0.086965
vt 0.933796 0.079863
vt 0.933797 0.095029
vt 0.933797 0.087927
vt 0.976409 0.087927
vt 0.976409 0.095029
vt 0.464033 0.973202
vt 0.464033 0.980304
vt 0.243949 0.980304
vt 0.243949 0.973201
vt 0.464033 0.880875
vt 0.464033 0.923487
vt 0.243949 0.923487
vt 0.243950 0.880875
vt 0.464033 0.930589
vt 0.243950 0.930589
vt 0.977719 0.044796
vt 0.977719 0.051898
vt 0.935107 0.051898
vt 0.935107 0.044796
vt 0.889713 0.043834
vt 0.889713 0.036732
vt 0.932326 0.036732
vt 0.932326 0.043834
vt 0.235215 0.559814
vt 0.015132 0.559815
vt 0.015132 0.552713
vt 0.235215 0.552712
vt 0.235215 0.652141
vt 0.015132 0.652141
vt 0.015132 0.609529
vt 0.235215 0.609529
vt 0.015132 0.602427
vt 0.235215 0.602427
vt 0.933133 0.119292
vt 0.890521 0.119292
vt 0.890521 0.112190
vt 0.933133 0.112190
vt 0.932326 0.027707
vt 0.889713 0.027707
vt 0.889713 0.020605
vt 0.932326 0.020605
vt 0.017757 0.974435
vt 0.237840 0.974435
vt 0.237840 0.981537
vt 0.017757 0.981537
vt 0.017757 0.882109
vt 0.237840 0.882109
vt 0.237840 0.924721
vt 0.017757 0.924721
vt 0.237840 0.931823
vt 0.017757 0.931823
vt 0.889430 0.087146
vt 0.932042 0.087146
vt 0.932042 0.094248
vt 0.889430 0.094248
vt 0.977719 0.059961
vt 0.935107 0.059961
vt 0.935107 0.052859
vt 0.977719 0.052859
vt 0.019730 0.128390
vt 0.239814 0.128390
vt 0.239814 0.135492
vt 0.019730 0.135492
vt 0.019730 0.036064
vt 0.239814 0.036064
vt 0.239813 0.078676
vt 0.019730 0.078676
vt 0.239814 0.085778
vt 0.019730 0.085778
vt 0.889566 0.078863
vt 0.932178 0.078863
vt 0.932178 0.085965
vt 0.889566 0.085965
vt 0.976409 0.119220
vt 0.933797 0.119220
vt 0.933797 0.112118
vt 0.976409 0.112118
vt 0.236870 0.777673
vt 0.016787 0.777673
vt 0.016787 0.770571
vt 0.236870 0.770571
vt 0.236870 0.870000
vt 0.016787 0.870000
vt 0.016787 0.827387
vt 0.236870 0.827387
vt 0.016787 0.820285
vt 0.236870 0.820285
vt 0.889713 0.052859
vt 0.932326 0.052859
vt 0.932326 0.059961
vt 0.889713 0.059961
vt 0.932326 0.035771
vt 0.889713 0.035771
vt 0.889713 0.028669
vt 0.932326 0.028669
vt 0.238064 0.350834
vt 0.017981 0.350834
vt 0.017981 0.343732
vt 0.238064 0.343732
vt 0.238064 0.443161
vt 0.017981 0.443161
vt 0.017981 0.400548
vt 0.238064 0.400548
vt 0.017981 0.393446
vt 0.238064 0.393446
vt 0.935106 0.028669
vt 0.977719 0.028669
vt 0.977719 0.035771
vt 0.935106 0.035771
vt 0.976409 0.111156
vt 0.933797 0.111156
vt 0.933797 0.104054
vt 0.976409 0.104054
vt 0.245713 0.765987
vt 0.465797 0.765987
vt 0.465797 0.773089
vt 0.245713 0.773089
vt 0.245713 0.673660
vt 0.465797 0.673660
vt 0.465797 0.716272
vt 0.245713 0.716272
vt 0.465797 0.723375
vt 0.245713 0.723375
vt 0.889566 0.070800
vt 0.932178 0.070800
vt 0.932178 0.077902
vt 0.889566 0.077902
vt 0.976409 0.078902
vt 0.933796 0.078902
vt 0.933796 0.071800
vt 0.976409 0.071800
vt 0.274314 0.301805
vt 0.880019 0.301805
vt 0.880019 0.351156
vt 0.274314 0.351156
vt 0.274236 0.291234
vt 0.879941 0.291234
vt 0.256686 0.612269
vt 0.897606 0.612269
vt 0.897606 0.660347
vt 0.256686 0.660346
vt 0.884122 0.301841
vt 0.883648 0.347274
vt 0.270211 0.301841
vt 0.270686 0.347274
vt 0.880019 0.362689
vt 0.880019 0.412040
vt 0.274314 0.412039
vt 0.274314 0.362689
vt 0.274236 0.352118
vt 0.879941 0.352117
vt 0.270211 0.362725
vt 0.270686 0.408158
vt 0.884122 0.362724
vt 0.883647 0.408158
vt 0.873500 0.532781
vt 0.883219 0.532781
vt 0.883219 0.542500
vt 0.873500 0.542500
vt 0.873500 0.561938
vt 0.487743 0.561938
vt 0.487743 0.552219
vt 0.873500 0.552218
vt 0.478023 0.532780
vt 0.487743 0.532780
vt 0.487743 0.542500
vt 0.478023 0.542500
vt 0.487743 0.523061
vt 0.873500 0.523061
vt 0.873499 0.512381
vt 0.873499 0.502661
vt 0.883219 0.502661
vt 0.883219 0.512381
vt 0.873499 0.483223
vt 0.873499 0.492942
vt 0.487742 0.492943
vt 0.487742 0.483223
vt 0.478023 0.512380
vt 0.478023 0.502661
vt 0.487742 0.502661
vt 0.487742 0.512380
vt 0.873499 0.522100
vt 0.487742 0.522100
vt 0.936825 0.923701
vt 0.957089 0.905005
vt 0.982444 0.932487
vt 0.962180 0.951183
vt 0.957089 0.830222
vt 0.936825 0.848917
vt 0.576291 0.848917
vt 0.576291 0.830221
vt 0.936825 0.886309
vt 0.576291 0.886309
vt 0.576291 0.923700
vt 0.576291 0.905004
vt 0.538900 0.905004
vt 0.538900 0.886309
vt 0.962180 0.858827
vt 0.982444 0.877523
vt 0.936825 0.961093
vt 0.957089 0.979789
vt 0.576291 0.979787
vt 0.576291 0.961092
vt 0.538900 0.923700
vt 0.410944 0.541568
vt 0.394658 0.556531
vt 0.284047 0.556531
vt 0.284047 0.541568
vt 0.394658 0.526605
vt 0.284047 0.526606
vt 0.264556 0.507114
vt 0.264556 0.492151
vt 0.284047 0.492151
vt 0.284047 0.507114
vt 0.944114 0.719207
vt 0.980582 0.713193
vt 0.981744 0.742112
vt 0.954108 0.737860
vt 0.964334 0.813243
vt 0.580812 0.813287
vt 0.580809 0.794457
vt 0.943923 0.794416
vt 0.580805 0.756798
vt 0.943918 0.756757
vt 0.580805 0.737966
vt 0.580807 0.719129
vt 0.543136 0.737964
vt 0.543136 0.756798
vt 0.975417 0.765338
vt 0.944122 0.681528
vt 0.580815 0.681450
vt 0.580819 0.662610
vt 0.964546 0.662693
vt 0.543137 0.719129
vt 0.394658 0.507114
vt 0.955581 0.602000
vt 0.955581 0.624117
vt 0.936090 0.624117
vt 0.936090 0.602000
vt 0.410944 0.492151
vt 0.284047 0.477189
vt 0.394658 0.477189
vt 0.936090 0.579884
vt 0.955581 0.579884
vt 0.394658 0.457697
vt 0.284047 0.457697
vt 0.264556 0.477189
vt 0.887294 0.149896
vt 0.855410 0.149896
vt 0.855410 0.137784
vt 0.887294 0.137784
vt 0.287241 0.149898
vt 0.287241 0.137784
vt 0.255353 0.149898
vt 0.255353 0.137784
vt 0.287241 0.181786
vt 0.855410 0.181784
vt 0.855410 0.193898
vt 0.287241 0.193898
vt 0.855410 0.105896
vt 0.287241 0.105896
vt 0.873054 0.431930
vt 0.880597 0.431894
vt 0.880635 0.439920
vt 0.873092 0.439955
vt 0.873105 0.423905
vt 0.413302 0.423905
vt 0.413264 0.415880
vt 0.873067 0.415880
vt 0.405708 0.431966
vt 0.413251 0.431930
vt 0.413289 0.439955
vt 0.405746 0.439991
vt 0.873041 0.447980
vt 0.413238 0.447980
vt 0.880635 0.464956
vt 0.873092 0.464992
vt 0.873054 0.456966
vt 0.880597 0.456931
vt 0.413288 0.464992
vt 0.413250 0.456966
vt 0.405745 0.465027
vt 0.405707 0.457002
vt 0.413237 0.473017
vt 0.873041 0.473017
vt 0.873079 0.481042
vt 0.413275 0.481042
vt 0.873105 0.448942
vt 0.413301 0.448942
vt 0.287959 0.241405
vt 0.256070 0.241405
vt 0.256070 0.229291
vt 0.287959 0.229291
vt 0.287959 0.273293
vt 0.856128 0.273291
vt 0.856128 0.285405
vt 0.287959 0.285405
vt 0.888012 0.241403
vt 0.856128 0.241403
vt 0.856128 0.229291
vt 0.888012 0.229291
vt 0.287959 0.197403
vt 0.856128 0.197403
vt 0.727262 0.076196
vt 0.734805 0.076160
vt 0.734843 0.084185
vt 0.727300 0.084221
vt 0.727313 0.068171
vt 0.267511 0.068171
vt 0.267473 0.060146
vt 0.727275 0.060146
vt 0.259917 0.076231
vt 0.267460 0.076196
vt 0.267498 0.084221
vt 0.259955 0.084256
vt 0.727249 0.092246
vt 0.267447 0.092246
vt 0.734843 0.043098
vt 0.727300 0.043134
vt 0.727262 0.035109
vt 0.734805 0.035073
vt 0.267498 0.043134
vt 0.267460 0.035109
vt 0.259955 0.043169
vt 0.259917 0.035144
vt 0.267447 0.051159
vt 0.727249 0.051159
vt 0.727287 0.059184
vt 0.267485 0.059184
vt 0.727313 0.027084
vt 0.267511 0.027084
vt 0.256687 0.611307
vt 0.256687 0.563229
vt 0.897606 0.563229
vt 0.897606 0.611307
vn -1.000000 0.000000 0.000000
vn 0.000000 0.000000 -1.000000
vn 1.000000 0.000000 0.000000
vn 0.000000 0.000000 1.000000
vn 0.000000 -1.000000 0.000000
vn 0.000000 1.000000 0.000000
vn 0.000000 0.682900 0.730500
vn 0.000000 -0.736400 0.676500
vn 0.000000 -0.675300 0.737600
vn 0.000000 0.682900 -0.730500
vn 0.000000 -0.736400 -0.676500
vn 0.000000 0.678100 0.735000
vn 0.000000 0.678100 -0.735000
vn 0.000000 0.676500 -0.736400
vn 0.000000 0.676500 0.736400
vn 0.000000 -0.675300 -0.737600
usemtl None
s off
f 5/1/1 6/2/1 2/3/1 1/4/1
f 6/5/2 7/6/2 3/7/2 2/8/2
f 7/6/3 8/9/3 4/10/3 3/7/3
f 8/9/4 5/1/4 1/4/4 4/10/4
f 1/11/5 2/12/5 3/13/5 4/14/5
f 8/15/6 7/16/6 6/17/6 5/18/6
f 13/19/1 14/20/1 10/21/1 9/22/1
f 14/23/2 15/24/2 11/25/2 10/26/2
f 15/24/3 16/27/3 12/28/3 11/25/3
f 16/27/4 13/19/4 9/22/4 12/28/4
f 9/29/5 10/30/5 11/31/5 12/32/5
f 16/33/6 15/34/6 14/35/6 13/36/6
f 21/37/1 22/38/1 18/39/1 17/40/1
f 22/41/2 23/42/2 19/43/2 18/44/2
f 23/42/3 24/45/3 20/46/3 19/43/3
f 24/45/4 21/37/4 17/40/4 20/46/4
f 17/47/5 18/48/5 19/49/5 20/50/5
f 24/51/6 23/52/6 22/53/6 21/54/6
f 29/55/1 30/56/1 26/57/1 25/58/1
f 30/59/2 31/60/2 27/61/2 26/62/2
f 31/60/3 32/63/3 28/64/3 27/61/3
f 32/63/4 29/55/4 25/58/4 28/64/4
f 25/65/5 26/66/5 27/67/5 28/68/5
f 32/69/6 31/70/6 30/71/6 29/72/6
f 37/73/1 38/74/1 34/75/1 33/76/1
f 38/77/2 39/78/2 35/79/2 34/80/2
f 39/78/3 40/81/3 36/82/3 35/79/3
f 40/81/4 37/73/4 33/76/4 36/82/4
f 33/83/5 34/84/5 35/85/5 36/86/5
f 40/87/6 39/88/6 38/89/6 37/90/6
f 45/91/1 46/92/1 42/93/1 41/94/1
f 46/95/2 47/96/2 43/97/2 42/98/2
f 47/96/3 48/99/3 44/100/3 43/97/3
f 48/99/4 45/91/4 41/94/4 44/100/4
f 41/101/5 42/102/5 43/103/5 44/104/5
f 48/105/6 47/106/6 46/107/6 45/108/6
f 53/109/3 49/110/3 50/111/3 54/112/3
f 54/113/2 50/114/2 51/115/2 55/116/2
f 55/116/1 51/115/1 52/117/1 56/118/1
f 56/118/4 52/117/4 49/110/4 53/109/4
f 49/119/5 52/120/5 51/121/5 50/122/5
f 56/123/6 53/124/6 54/125/6 55/126/6
f 61/127/3 57/128/3 58/129/3 62/130/3
f 62/131/2 58/132/2 59/133/2 63/134/2
f 63/134/1 59/133/1 60/135/1 64/136/1
f 64/136/4 60/135/4 57/128/4 61/127/4
f 57/137/5 60/138/5 59/139/5 58/140/5
f 64/141/6 61/142/6 62/143/6 63/144/6
f 69/145/3 65/146/3 66/147/3 70/148/3
f 70/149/2 66/150/2 67/151/2 71/152/2
f 71/152/1 67/151/1 68/153/1 72/154/1
f 72/154/4 68/153/4 65/146/4 69/145/4
f 65/155/5 68/156/5 67/157/5 66/158/5
f 72/159/6 69/160/6 70/161/6 71/162/6
f 77/163/3 73/164/3 74/165/3 78/166/3
f 78/167/2 74/168/2 75/169/2 79/170/2
f 79/170/1 75/169/1 76/171/1 80/172/1
f 80/172/4 76/171/4 73/164/4 77/163/4
f 73/173/5 76/174/5 75/175/5 74/176/5
f 80/177/6 77/178/6 78/179/6 79/180/6
f 85/181/3 81/182/3 82/183/3 86/184/3
f 86/185/2 82/186/2 83/187/2 87/188/2
f 87/188/1 83/187/1 84/189/1 88/190/1
f 88/190/4 84/189/4 81/182/4 85/181/4
f 81/191/5 84/192/5 83/193/5 82/194/5
f 88/195/6 85/196/6 86/197/6 87/198/6
f 93/199/3 89/200/3 90/201/3 94/202/3
f 94/203/2 90/204/2 91/205/2 95/206/2
f 95/206/1 91/205/1 92/207/1 96/208/1
f 96/208/4 92/207/4 89/200/4 93/199/4
f 89/209/5 92/210/5 91/211/5 90/212/5
f 96/213/6 93/214/6 94/215/6 95/216/6
f 100/217/7 98/218/7 104/219/7 108/220/7
f 98/218/8 100/217/8 99/221/8 97/222/8
f 105/223/9 101/224/9 102/225/9 106/226/9
f 97/227/3 102/228/3 104/219/3 98/218/3
f 99/229/1 100/217/1 108/220/1 106/230/1
f 107/231/10 108/232/10 104/233/10 103/234/10
f 101/235/11 105/236/11 107/231/11 103/234/11
f 101/237/3 103/234/3 104/233/3 102/238/3
f 105/239/1 106/240/1 108/232/1 107/231/1
f 113/241/1 114/242/1 110/243/1 109/244/1
f 114/245/2 115/246/2 111/247/2 110/248/2
f 115/249/3 116/250/3 112/251/3 111/252/3
f 116/250/4 113/241/4 109/244/4 112/251/4
f 109/244/5 110/248/5 111/247/5 112/251/5
f 116/250/6 115/253/6 114/254/6 113/241/6
f 121/255/3 117/256/3 118/257/3 122/258/3
f 122/259/2 118/260/2 119/261/2 123/262/2
f 123/263/1 119/264/1 120/265/1 124/266/1
f 124/266/4 120/265/4 117/256/4 121/255/4
f 117/256/5 120/265/5 119/261/5 118/260/5
f 124/266/6 121/255/6 122/267/6 123/268/6
f 132/269/12 134/270/12 136/271/12 129/272/12
f 136/273/1 130/274/1 126/275/1 135/276/1
f 130/274/2 131/277/2 127/278/2 126/275/2
f 134/270/3 132/269/3 128/279/3 133/280/3
f 135/281/5 126/282/5 127/278/5 133/280/5
f 134/270/13 131/277/13 130/283/13 136/284/13
f 129/285/1 136/286/1 135/287/1 125/288/1
f 131/277/3 134/270/3 133/280/3 127/278/3
f 125/289/5 135/281/5 133/280/5 128/279/5
f 141/290/3 138/291/3 140/292/3 142/293/3
f 137/294/3 141/290/3 142/293/3 139/295/3
f 139/296/5 142/297/5 160/298/5 157/299/5
f 132/269/4 129/285/4 125/288/4 128/279/4
f 150/300/12 147/301/12 154/302/12 152/303/12
f 154/304/3 153/305/3 144/306/3 148/307/3
f 148/307/2 144/306/2 145/308/2 149/309/2
f 152/303/1 151/310/1 146/311/1 150/300/1
f 153/312/5 151/310/5 145/308/5 144/313/5
f 152/303/13 154/302/13 148/314/13 149/309/13
f 147/315/3 143/316/3 153/317/3 154/318/3
f 149/309/1 145/308/1 151/310/1 152/303/1
f 143/319/5 146/311/5 151/310/5 153/312/5
f 137/294/2 139/295/2 157/299/2 155/320/2
f 141/321/14 137/322/14 155/323/14 159/324/14
f 159/325/1 160/298/1 158/326/1 156/327/1
f 156/328/15 138/329/15 141/321/15 159/324/15
f 138/330/4 156/327/4 158/326/4 140/331/4
f 155/320/1 157/299/1 160/298/1 159/325/1
f 142/297/5 140/332/5 158/326/5 160/298/5
f 150/300/4 146/311/4 143/316/4 147/315/4
f 165/333/1 166/334/1 162/335/1 161/336/1
f 166/334/4 167/337/4 163/338/4 162/335/4
f 167/337/3 168/339/3 164/340/3 163/338/3
f 168/341/2 165/342/2 161/343/2 164/344/2
f 161/345/6 162/335/6 163/338/6 164/346/6
f 168/341/5 167/337/5 166/334/5 165/342/5
f 173/347/1 174/348/1 170/349/1 169/350/1
f 174/351/4 175/352/4 171/353/4 170/354/4
f 175/355/3 176/356/3 172/357/3 171/358/3
f 176/356/2 173/347/2 169/350/2 172/357/2
f 169/350/6 170/359/6 171/360/6 172/357/6
f 176/356/5 175/352/5 174/351/5 173/347/5
f 181/361/1 182/362/1 178/363/1 177/364/1
f 182/362/4 183/365/4 179/366/4 178/363/4
f 183/365/3 184/367/3 180/368/3 179/366/3
f 184/369/2 181/370/2 177/371/2 180/372/2
f 177/373/6 178/363/6 179/366/6 180/374/6
f 184/369/5 183/365/5 182/362/5 181/370/5
f 189/375/1 190/376/1 186/377/1 185/378/1
f 190/379/2 191/380/2 187/381/2 186/382/2
f 191/383/3 192/384/3 188/385/3 187/386/3
f 192/384/4 189/375/4 185/378/4 188/385/4
f 185/378/5 186/387/5 187/388/5 188/385/5
f 192/384/6 191/380/6 190/379/6 189/375/6
f 197/389/1 198/390/1 194/391/1 193/392/1
f 198/393/2 199/394/2 195/395/2 194/396/2
f 199/397/3 200/398/3 196/399/3 195/400/3
f 200/398/4 197/389/4 193/392/4 196/399/4
f 193/392/5 194/401/5 195/402/5 196/399/5
f 200/398/6 199/394/6 198/393/6 197/389/6
f 205/403/1 206/404/1 202/405/1 201/406/1
f 206/404/2 207/407/2 203/408/2 202/405/2
f 207/407/3 208/409/3 204/410/3 203/408/3
f 208/411/4 205/412/4 201/413/4 204/414/4
f 201/415/5 202/405/5 203/408/5 204/416/5
f 208/411/6 207/407/6 206/404/6 205/412/6
f 99/417/16 106/418/16 102/419/16 97/420/16
